M48
; DRILL file {KiCad 9.0.0} date 2025-04-01T09:44:29+0530
; FORMAT={-:-/ absolute / metric / decimal}
; #@! TF.CreationDate,2025-04-01T09:44:29+05:30
; #@! TF.GenerationSoftware,Kicad,Pcbnew,9.0.0
; #@! TF.FileFunction,Plated,1,2,PTH
FMAT,2
METRIC
; #@! TA.AperFunction,Plated,PTH,ViaDrill
T1C0.300
; #@! TA.AperFunction,Plated,PTH,ComponentDrill
T2C0.750
; #@! TA.AperFunction,Plated,PTH,ComponentDrill
T3C0.800
; #@! TA.AperFunction,Plated,PTH,ComponentDrill
T4C0.900
; #@! TA.AperFunction,Plated,PTH,ComponentDrill
T5C1.100
; #@! TA.AperFunction,Plated,PTH,ComponentDrill
T6C1.300
%
G90
G05
T1
X23.085Y-93.802
X23.371Y-99.665
X23.583Y-33.18
X23.583Y-39.484
X23.674Y-131.616
X24.142Y-132.895
X25.016Y-35.362
X25.178Y-98.607
X25.208Y-51.99
X25.359Y-24.322
X25.697Y-40.625
X25.864Y-141.877
X26.301Y-37.407
X26.396Y-64.384
X26.493Y-26.61
X26.77Y-54.53
X27.183Y-66.642
X27.479Y-64.833
X27.59Y-93.149
X27.6Y-83.974
X27.635Y-60.21
X27.992Y-123.221
X28.266Y-97.932
X30.963Y-17.818
X30.977Y-29.978
X31.019Y-72.409
X31.423Y-60.066
X33.194Y-94.439
X33.338Y-108.596
X33.439Y-97.33
X33.844Y-77.925
X33.99Y-61.069
X34.428Y-26.676
X34.44Y-145.322
X34.727Y-51.99
X35.166Y-98.145
X35.567Y-59.094
X35.71Y-71.577
X35.967Y-124.225
X36.488Y-131.904
X36.986Y-146.13
X37.088Y-78.929
X37.563Y-29.268
X37.59Y-147.875
X37.59Y-86.371
X37.707Y-46.91
X37.725Y-61.303
X37.899Y-18.569
X37.899Y-24.741
X38.291Y-38.322
X38.75Y-84.181
X38.788Y-87.005
X38.842Y-103.187
X39.046Y-96.724
X39.541Y-122.385
X39.541Y-142.546
X39.807Y-99.242
X40.505Y-118.341
X41.108Y-140.162
X41.635Y-50.875
X41.73Y-141.21
X41.939Y-80.714
X41.998Y-30.386
X42.334Y-111.7
X43.181Y-140.874
X44.31Y-139.947
X44.708Y-60.075
X45.406Y-38.709
X45.441Y-71.34
X45.909Y-85.61
X46.417Y-59.529
X46.417Y-75.29
X46.644Y-84.861
X46.888Y-97.932
X47.232Y-73.88
X47.321Y-40.321
X47.509Y-100.869
X48.164Y-51.249
X48.707Y-89.947
X48.796Y-66.26
X48.849Y-100.137
X48.874Y-78.705
X49.078Y-93.151
X49.441Y-21.101
X49.493Y-50.588
X49.977Y-24.431
X51.339Y-98.127
X51.366Y-18.767
X51.382Y-77.729
X52.118Y-101.123
X52.262Y-82.273
X52.322Y-36.346
X52.425Y-79.63
X52.679Y-96.615
X52.794Y-38.71
X53.044Y-26.364
X53.119Y-106.001
X53.256Y-77.612
X53.506Y-70.07
X54.299Y-59.789
X54.891Y-40.292
X55.224Y-99.484
X55.512Y-73.111
X55.552Y-57.379
X55.7Y-40.335
X55.781Y-20.379
X55.996Y-59.021
X56.118Y-29.504
X56.242Y-72.509
X56.451Y-74.585
X56.519Y-36.279
X57.121Y-33.184
X57.465Y-89.261
X57.665Y-55.96
X57.989Y-28.1
X58.008Y-98.312
X58.068Y-57.812
X58.253Y-95.651
X58.591Y-51.164
X58.631Y-22.21
X58.631Y-24.431
X58.674Y-51.99
X59.398Y-98.386
X59.475Y-63.926
X59.475Y-70.372
X59.477Y-77.612
X59.567Y-81.083
X59.636Y-71.34
X59.881Y-27.349
X59.934Y-61.18
X60.066Y-75.361
X60.072Y-42.078
X60.168Y-86.336
X60.277Y-63.975
X60.671Y-143.881
X60.984Y-79.347
X61.068Y-103.391
X61.245Y-98.689
X63.027Y-98.287
X63.032Y-76.658
X63.166Y-51.553
X63.206Y-95.772
X63.882Y-39.3
X65.183Y-125.539
X65.202Y-109.463
X65.278Y-83.58
X65.792Y-128.0
X65.88Y-82.244
X65.985Y-26.287
X66.002Y-57.974
X66.199Y-127.224
X66.259Y-36.359
X66.457Y-82.976
X66.688Y-90.617
X66.801Y-147.349
X66.906Y-59.408
X67.009Y-106.104
X67.148Y-36.334
X67.148Y-39.722
X67.15Y-66.003
X67.508Y-79.425
X67.625Y-113.0
X67.709Y-51.355
X67.995Y-38.698
X68.01Y-57.974
X68.022Y-108.89
X68.042Y-95.173
X68.151Y-114.25
X68.349Y-81.341
X68.491Y-44.81
X68.548Y-39.289
X68.598Y-78.529
X68.618Y-70.545
X68.906Y-57.067
X69.063Y-80.253
X69.085Y-38.078
X69.108Y-100.923
X69.414Y-83.891
X69.771Y-74.986
X69.793Y-97.07
X69.801Y-78.367
X69.805Y-20.916
X70.053Y-77.164
X70.066Y-93.31
X70.395Y-98.181
X70.507Y-41.958
X70.77Y-53.404
X70.969Y-29.538
X71.172Y-111.853
X71.274Y-90.722
X71.274Y-96.058
X71.33Y-98.704
X71.421Y-86.115
X72.221Y-106.884
X72.331Y-37.869
X72.438Y-117.528
X72.791Y-107.461
X73.152Y-108.417
X73.515Y-43.512
X73.523Y-34.907
X73.569Y-79.41
X73.86Y-57.869
X73.91Y-117.412
X73.994Y-107.802
X74.608Y-74.986
X74.621Y-26.404
X75.046Y-100.722
X75.555Y-77.775
X76.558Y-86.91
X76.624Y-81.081
X76.662Y-112.035
X77.364Y-80.679
X77.431Y-44.81
X77.545Y-136.719
X77.865Y-36.043
X77.959Y-112.301
X78.341Y-59.889
X78.566Y-113.064
X78.956Y-46.91
X79.065Y-30.577
X79.076Y-36.492
X79.538Y-37.233
X79.585Y-80.051
X80.218Y-24.734
X80.518Y-42.359
X80.612Y-40.891
X80.743Y-31.566
X81.026Y-108.862
X81.556Y-27.358
X81.899Y-45.488
X81.95Y-25.56
X82.157Y-34.424
X83.257Y-131.065
X83.329Y-104.212
X84.919Y-24.124
X85.082Y-50.866
X85.532Y-57.09
X85.678Y-51.423
X86.445Y-98.442
X86.457Y-78.377
X86.531Y-104.569
X87.228Y-95.669
X87.461Y-78.443
X87.733Y-39.147
X88.232Y-19.924
X88.922Y-22.203
X89.229Y-38.635
X89.318Y-83.489
X89.68Y-17.816
X90.031Y-38.233
X90.78Y-48.534
X91.69Y-139.996
X91.911Y-44.601
X92.094Y-68.528
X93.014Y-81.185
X93.494Y-78.522
X94.329Y-121.72
X94.454Y-80.65
X95.51Y-62.427
X95.518Y-72.102
X95.942Y-84.798
X97.608Y-40.082
X97.778Y-43.841
X97.882Y-88.218
X98.511Y-108.105
X98.763Y-33.439
X99.408Y-115.965
X99.476Y-56.4
X100.057Y-76.29
X100.301Y-27.58
X101.04Y-67.298
X101.552Y-72.72
X102.343Y-71.252
X102.829Y-38.233
X104.538Y-76.891
X104.928Y-81.59
X105.958Y-55.727
X106.628Y-104.32
X106.752Y-63.558
X106.795Y-39.645
X107.354Y-56.73
X107.609Y-140.846
X108.212Y-83.592
X108.46Y-120.07
X110.219Y-103.517
X110.619Y-83.598
X112.063Y-104.824
X112.724Y-120.071
X112.912Y-55.059
X113.321Y-27.691
X113.321Y-35.916
X113.603Y-59.494
X113.644Y-50.702
X114.078Y-39.037
X114.68Y-49.871
X114.91Y-60.114
X115.335Y-64.585
X115.916Y-67.828
X116.656Y-60.938
X116.789Y-29.375
X117.25Y-73.549
X117.565Y-26.83
X117.819Y-87.25
X117.905Y-93.096
X117.905Y-144.828
X119.31Y-129.581
X120.452Y-56.562
X120.854Y-85.43
X121.379Y-40.698
X121.898Y-106.04
X122.864Y-66.242
X123.849Y-107.738
X123.873Y-83.456
X126.519Y-127.847
X127.093Y-72.913
X127.623Y-66.948
X128.297Y-93.312
X129.097Y-128.301
X129.118Y-82.584
X129.204Y-41.798
X131.431Y-146.149
X132.291Y-106.158
X132.923Y-105.026
X133.509Y-81.827
X133.993Y-73.549
X134.001Y-45.245
X135.203Y-79.593
X135.815Y-83.948
X136.417Y-46.957
X137.75Y-47.998
X138.962Y-40.69
X139.564Y-84.551
X140.176Y-82.314
X140.541Y-53.248
X140.846Y-97.282
X141.517Y-50.702
X142.121Y-103.91
X143.407Y-78.996
X143.407Y-125.275
X144.094Y-52.646
X144.8Y-51.962
X145.127Y-105.552
X148.486Y-69.598
X150.419Y-136.34
X150.565Y-103.274
X151.522Y-62.104
X152.253Y-56.492
X153.012Y-54.251
X156.993Y-47.788
X156.993Y-56.517
X158.131Y-66.391
X158.409Y-96.68
X158.817Y-56.738
X159.422Y-48.188
X159.422Y-88.864
X161.265Y-147.875
X166.0Y-53.585
X169.749Y-63.808
T2
X84.89Y-126.24
X84.89Y-132.03
X84.89Y-137.82
X86.16Y-126.24
X86.16Y-132.03
X86.16Y-137.82
X87.43Y-126.24
X87.43Y-132.03
X87.43Y-137.82
X116.71Y-43.86
X116.71Y-49.65
X116.71Y-55.44
X117.25Y-64.86
X117.25Y-70.65
X117.25Y-76.44
X117.98Y-43.86
X117.98Y-49.65
X117.98Y-55.44
X118.52Y-64.86
X118.52Y-70.65
X118.52Y-76.44
X119.25Y-43.86
X119.25Y-49.65
X119.25Y-55.44
X119.79Y-64.86
X119.79Y-70.65
X119.79Y-76.44
X123.22Y-43.86
X123.22Y-49.65
X123.22Y-55.44
X123.76Y-64.86
X123.76Y-70.65
X123.76Y-76.44
X124.49Y-43.86
X124.49Y-49.65
X124.49Y-55.44
X125.03Y-64.86
X125.03Y-70.65
X125.03Y-76.44
X125.76Y-43.86
X125.76Y-49.65
X125.76Y-55.44
X126.3Y-64.86
X126.3Y-70.65
X126.3Y-76.44
X129.73Y-43.86
X129.73Y-49.65
X129.73Y-55.44
X130.27Y-64.86
X130.27Y-70.65
X130.27Y-76.44
X131.0Y-43.86
X131.0Y-49.65
X131.0Y-55.44
X131.54Y-64.86
X131.54Y-70.65
X131.54Y-76.44
X132.27Y-43.86
X132.27Y-49.65
X132.27Y-55.44
X132.81Y-64.86
X132.81Y-70.65
X132.81Y-76.44
T3
X21.74Y-102.2
X21.74Y-106.834
X21.74Y-111.7
X21.74Y-116.45
X21.74Y-121.2
X21.74Y-125.95
X21.74Y-130.7
X21.74Y-135.45
X21.74Y-140.2
X21.75Y-20.48
X21.75Y-23.02
X21.75Y-25.56
X21.75Y-28.1
X21.75Y-30.64
X21.75Y-33.18
X21.75Y-35.72
X21.75Y-41.83
X21.75Y-44.37
X21.75Y-46.91
X21.75Y-49.45
X21.75Y-51.99
X21.75Y-54.53
X21.75Y-57.07
X21.75Y-61.18
X21.75Y-63.72
X21.75Y-66.26
X21.75Y-68.8
X21.75Y-71.34
X21.75Y-73.88
X21.75Y-76.42
X21.75Y-80.53
X21.75Y-83.07
X21.75Y-85.61
X21.75Y-88.15
X21.75Y-90.69
X21.75Y-93.23
X21.75Y-95.77
X29.37Y-20.48
X29.37Y-23.02
X29.37Y-25.56
X29.37Y-28.1
X29.37Y-30.64
X29.37Y-33.18
X29.37Y-35.72
X29.37Y-41.83
X29.37Y-44.37
X29.37Y-46.91
X29.37Y-49.45
X29.37Y-51.99
X29.37Y-54.53
X29.37Y-57.07
X29.37Y-61.18
X29.37Y-63.72
X29.37Y-66.26
X29.37Y-68.8
X29.37Y-71.34
X29.37Y-73.88
X29.37Y-76.42
X29.37Y-80.53
X29.37Y-83.07
X29.37Y-85.61
X29.37Y-88.15
X29.37Y-90.69
X29.37Y-93.23
X29.37Y-95.77
X32.53Y-20.48
X32.53Y-23.02
X32.53Y-25.56
X32.53Y-28.1
X32.53Y-30.64
X32.53Y-33.18
X32.53Y-35.72
X32.53Y-41.83
X32.53Y-44.37
X32.53Y-46.91
X32.53Y-49.45
X32.53Y-51.99
X32.53Y-54.53
X32.53Y-57.07
X32.53Y-61.18
X32.53Y-63.72
X32.53Y-66.26
X32.53Y-68.8
X32.53Y-71.34
X32.53Y-73.88
X32.53Y-76.42
X32.53Y-80.53
X32.53Y-83.07
X32.53Y-85.61
X32.53Y-88.15
X32.53Y-90.69
X32.53Y-93.23
X32.53Y-95.77
X34.44Y-102.2
X34.44Y-106.834
X34.44Y-111.7
X34.44Y-116.45
X34.44Y-121.2
X34.44Y-125.95
X34.44Y-130.7
X34.44Y-135.45
X34.44Y-140.2
X37.59Y-101.85
X37.59Y-105.9
X37.59Y-109.95
X37.59Y-114.0
X37.59Y-118.05
X37.59Y-122.1
X37.59Y-126.15
X37.59Y-130.2
X37.59Y-134.25
X40.15Y-20.48
X40.15Y-23.02
X40.15Y-25.56
X40.15Y-28.1
X40.15Y-30.64
X40.15Y-33.18
X40.15Y-35.72
X40.15Y-41.83
X40.15Y-44.37
X40.15Y-46.91
X40.15Y-49.45
X40.15Y-51.99
X40.15Y-54.53
X40.15Y-57.07
X40.15Y-61.18
X40.15Y-63.72
X40.15Y-66.26
X40.15Y-68.8
X40.15Y-71.34
X40.15Y-73.88
X40.15Y-76.42
X40.15Y-80.53
X40.15Y-83.07
X40.15Y-85.61
X40.15Y-88.15
X40.15Y-90.69
X40.15Y-93.23
X40.15Y-95.77
X43.31Y-20.48
X43.31Y-23.02
X43.31Y-25.56
X43.31Y-28.1
X43.31Y-30.64
X43.31Y-33.18
X43.31Y-35.72
X43.31Y-41.83
X43.31Y-44.37
X43.31Y-46.91
X43.31Y-49.45
X43.31Y-51.99
X43.31Y-54.53
X43.31Y-57.07
X43.31Y-61.18
X43.31Y-63.72
X43.31Y-66.26
X43.31Y-68.8
X43.31Y-71.34
X43.31Y-73.88
X43.31Y-76.42
X43.31Y-80.53
X43.31Y-83.07
X43.31Y-85.61
X43.31Y-88.15
X43.31Y-90.69
X43.31Y-93.23
X43.31Y-95.77
X45.21Y-101.85
X45.21Y-105.9
X45.21Y-109.95
X45.21Y-114.0
X45.21Y-118.05
X45.21Y-122.1
X45.21Y-126.15
X45.21Y-130.2
X45.21Y-134.25
X49.72Y-102.84
X49.72Y-105.38
X49.72Y-107.92
X49.72Y-110.46
X49.72Y-113.0
X49.72Y-115.54
X49.72Y-118.08
X49.72Y-124.19
X49.72Y-126.73
X49.72Y-129.27
X49.72Y-131.81
X49.72Y-134.35
X49.72Y-136.89
X49.72Y-139.43
X50.93Y-20.48
X50.93Y-23.02
X50.93Y-25.56
X50.93Y-28.1
X50.93Y-30.64
X50.93Y-33.18
X50.93Y-35.72
X50.93Y-41.83
X50.93Y-44.37
X50.93Y-46.91
X50.93Y-49.45
X50.93Y-51.99
X50.93Y-54.53
X50.93Y-57.07
X50.93Y-61.18
X50.93Y-63.72
X50.93Y-66.26
X50.93Y-68.8
X50.93Y-71.34
X50.93Y-73.88
X50.93Y-76.42
X50.93Y-80.53
X50.93Y-83.07
X50.93Y-85.61
X50.93Y-88.15
X50.93Y-90.69
X50.93Y-93.23
X50.93Y-95.77
X54.09Y-20.48
X54.09Y-23.02
X54.09Y-25.56
X54.09Y-28.1
X54.09Y-30.64
X54.09Y-33.18
X54.09Y-35.72
X54.09Y-41.83
X54.09Y-44.37
X54.09Y-46.91
X54.09Y-49.45
X54.09Y-51.99
X54.09Y-54.53
X54.09Y-57.07
X54.09Y-61.18
X54.09Y-63.72
X54.09Y-66.26
X54.09Y-68.8
X54.09Y-71.34
X54.09Y-73.88
X54.09Y-76.42
X54.09Y-80.53
X54.09Y-83.07
X54.09Y-85.61
X54.09Y-88.15
X54.09Y-90.69
X54.09Y-93.23
X54.09Y-95.77
X57.34Y-102.84
X57.34Y-105.38
X57.34Y-107.92
X57.34Y-110.46
X57.34Y-113.0
X57.34Y-115.54
X57.34Y-118.08
X57.34Y-124.19
X57.34Y-126.73
X57.34Y-129.27
X57.34Y-131.81
X57.34Y-134.35
X57.34Y-136.89
X57.34Y-139.43
X61.71Y-20.48
X61.71Y-23.02
X61.71Y-25.56
X61.71Y-28.1
X61.71Y-30.64
X61.71Y-33.18
X61.71Y-35.72
X61.71Y-41.83
X61.71Y-44.37
X61.71Y-46.91
X61.71Y-49.45
X61.71Y-51.99
X61.71Y-54.53
X61.71Y-57.07
X61.71Y-61.18
X61.71Y-63.72
X61.71Y-66.26
X61.71Y-68.8
X61.71Y-71.34
X61.71Y-73.88
X61.71Y-76.42
X61.71Y-80.53
X61.71Y-83.07
X61.71Y-85.61
X61.71Y-88.15
X61.71Y-90.69
X61.71Y-93.23
X61.71Y-95.77
X62.5Y-102.84
X62.5Y-105.38
X62.5Y-107.92
X62.5Y-110.46
X62.5Y-113.0
X62.5Y-115.54
X62.5Y-118.08
X62.5Y-124.19
X62.5Y-126.73
X62.5Y-129.27
X62.5Y-131.81
X62.5Y-134.35
X62.5Y-136.89
X62.5Y-139.43
X64.87Y-20.48
X64.87Y-23.02
X64.87Y-25.56
X64.87Y-28.1
X64.87Y-30.64
X64.87Y-33.18
X64.87Y-35.72
X64.87Y-41.83
X64.87Y-44.37
X64.87Y-46.91
X64.87Y-49.45
X64.87Y-51.99
X64.87Y-54.53
X64.87Y-57.07
X64.87Y-61.18
X64.87Y-63.72
X64.87Y-66.26
X64.87Y-68.8
X64.87Y-71.34
X64.87Y-73.88
X64.87Y-76.42
X70.12Y-102.84
X70.12Y-105.38
X70.12Y-107.92
X70.12Y-110.46
X70.12Y-113.0
X70.12Y-115.54
X70.12Y-118.08
X70.12Y-124.19
X70.12Y-126.73
X70.12Y-129.27
X70.12Y-131.81
X70.12Y-134.35
X70.12Y-136.89
X70.12Y-139.43
X72.49Y-20.48
X72.49Y-23.02
X72.49Y-25.56
X72.49Y-28.1
X72.49Y-30.64
X72.49Y-33.18
X72.49Y-35.72
X72.49Y-41.83
X72.49Y-44.37
X72.49Y-46.91
X72.49Y-49.45
X72.49Y-51.99
X72.49Y-54.53
X72.49Y-57.07
X72.49Y-61.18
X72.49Y-63.72
X72.49Y-66.26
X72.49Y-68.8
X72.49Y-71.34
X72.49Y-73.88
X72.49Y-76.42
X73.93Y-111.11
X73.93Y-115.86
X73.93Y-120.61
X73.94Y-86.91
X73.94Y-89.45
X73.94Y-91.99
X73.94Y-94.53
X73.94Y-97.07
X73.94Y-99.61
X73.94Y-102.15
X73.94Y-104.69
X75.65Y-20.48
X75.65Y-23.02
X75.65Y-25.56
X75.65Y-28.1
X75.65Y-30.64
X75.65Y-33.18
X75.65Y-35.72
X75.65Y-41.83
X75.65Y-44.37
X75.65Y-46.91
X75.65Y-49.45
X75.65Y-51.99
X75.65Y-54.53
X75.65Y-57.07
X75.65Y-61.18
X75.65Y-63.72
X75.65Y-66.26
X75.65Y-68.8
X75.65Y-71.34
X75.65Y-73.88
X75.65Y-76.42
X81.56Y-86.91
X81.56Y-89.45
X81.56Y-91.99
X81.56Y-94.53
X81.56Y-97.07
X81.56Y-99.61
X81.56Y-102.15
X81.56Y-104.69
X83.27Y-20.48
X83.27Y-23.02
X83.27Y-25.56
X83.27Y-28.1
X83.27Y-30.64
X83.27Y-33.18
X83.27Y-35.72
X83.27Y-41.83
X83.27Y-44.37
X83.27Y-46.91
X83.27Y-49.45
X83.27Y-51.99
X83.27Y-54.53
X83.27Y-57.07
X83.27Y-61.18
X83.27Y-63.72
X83.27Y-66.26
X83.27Y-68.8
X83.27Y-71.34
X83.27Y-73.88
X83.27Y-76.42
X84.72Y-86.92
X84.72Y-89.46
X84.72Y-92.0
X84.72Y-94.54
X84.72Y-97.08
X84.72Y-99.62
X84.72Y-102.16
X86.43Y-20.48
X86.43Y-23.02
X86.43Y-25.56
X86.43Y-28.1
X86.43Y-30.64
X86.43Y-33.18
X86.43Y-35.72
X86.63Y-111.11
X86.63Y-115.86
X86.63Y-120.61
X88.34Y-42.15
X88.34Y-46.9
X88.34Y-51.65
X88.34Y-56.4
X88.34Y-61.15
X88.34Y-65.9
X88.34Y-70.65
X88.34Y-75.4
X88.34Y-80.15
X89.78Y-110.76
X89.78Y-114.81
X89.78Y-118.86
X92.34Y-86.92
X92.34Y-89.46
X92.34Y-92.0
X92.34Y-94.54
X92.34Y-97.08
X92.34Y-99.62
X92.34Y-102.16
X94.05Y-20.48
X94.05Y-23.02
X94.05Y-25.56
X94.05Y-28.1
X94.05Y-30.64
X94.05Y-33.18
X94.05Y-35.72
X95.5Y-86.92
X95.5Y-89.46
X95.5Y-92.0
X95.5Y-94.54
X95.5Y-97.08
X95.5Y-99.62
X95.5Y-102.16
X97.21Y-20.48
X97.21Y-23.02
X97.21Y-25.56
X97.21Y-28.1
X97.21Y-30.64
X97.21Y-33.18
X97.21Y-35.72
X97.4Y-110.76
X97.4Y-114.81
X97.4Y-118.86
X101.04Y-42.15
X101.04Y-46.9
X101.04Y-51.65
X101.04Y-56.4
X101.04Y-61.15
X101.04Y-65.9
X101.04Y-70.65
X101.04Y-75.4
X101.04Y-80.15
X101.68Y-108.64
X101.68Y-111.18
X101.68Y-113.72
X101.68Y-116.26
X101.68Y-118.8
X101.68Y-121.34
X101.68Y-123.88
X101.68Y-129.99
X101.68Y-132.53
X101.68Y-135.07
X101.68Y-137.61
X101.68Y-140.15
X101.68Y-142.69
X101.68Y-145.23
X103.12Y-86.92
X103.12Y-89.46
X103.12Y-92.0
X103.12Y-94.54
X103.12Y-97.08
X103.12Y-99.62
X103.12Y-102.16
X104.19Y-41.8
X104.19Y-45.85
X104.19Y-49.9
X104.19Y-53.95
X104.19Y-58.0
X104.19Y-62.05
X104.19Y-66.1
X104.19Y-70.15
X104.19Y-74.2
X104.83Y-20.48
X104.83Y-23.02
X104.83Y-25.56
X104.83Y-28.1
X104.83Y-30.64
X104.83Y-33.18
X104.83Y-35.72
X107.99Y-20.48
X107.99Y-23.02
X107.99Y-25.56
X107.99Y-28.1
X107.99Y-30.64
X107.99Y-33.18
X107.99Y-35.72
X108.28Y-86.92
X108.28Y-89.46
X108.28Y-92.0
X108.28Y-94.54
X108.28Y-97.08
X108.28Y-99.62
X108.28Y-102.16
X109.3Y-108.64
X109.3Y-111.18
X109.3Y-113.72
X109.3Y-116.26
X109.3Y-118.8
X109.3Y-121.34
X109.3Y-123.88
X109.3Y-129.99
X109.3Y-132.53
X109.3Y-135.07
X109.3Y-137.61
X109.3Y-140.15
X109.3Y-142.69
X109.3Y-145.23
X111.81Y-41.8
X111.81Y-45.85
X111.81Y-49.9
X111.81Y-53.95
X111.81Y-58.0
X111.81Y-62.05
X111.81Y-66.1
X111.81Y-70.15
X111.81Y-74.2
X114.46Y-108.64
X114.46Y-111.18
X114.46Y-113.72
X114.46Y-116.26
X114.46Y-118.8
X114.46Y-121.34
X114.46Y-123.88
X114.46Y-129.99
X114.46Y-132.53
X114.46Y-135.07
X114.46Y-137.61
X114.46Y-140.15
X114.46Y-142.69
X114.46Y-145.23
X115.61Y-20.48
X115.61Y-23.02
X115.61Y-25.56
X115.61Y-28.1
X115.61Y-30.64
X115.61Y-33.18
X115.61Y-35.72
X115.9Y-86.92
X115.9Y-89.46
X115.9Y-92.0
X115.9Y-94.54
X115.9Y-97.08
X115.9Y-99.62
X115.9Y-102.16
X118.77Y-20.48
X118.77Y-23.02
X118.77Y-25.56
X118.77Y-28.1
X118.77Y-30.64
X118.77Y-33.18
X118.77Y-35.72
X122.08Y-108.64
X122.08Y-111.18
X122.08Y-113.72
X122.08Y-116.26
X122.08Y-118.8
X122.08Y-121.34
X122.08Y-123.88
X122.08Y-129.99
X122.08Y-132.53
X122.08Y-135.07
X122.08Y-137.61
X122.08Y-140.15
X122.08Y-142.69
X122.08Y-145.23
X126.39Y-20.48
X126.39Y-23.02
X126.39Y-25.56
X126.39Y-28.1
X126.39Y-30.64
X126.39Y-33.18
X126.39Y-35.72
X131.55Y-20.48
X131.55Y-23.02
X131.55Y-25.56
X131.55Y-28.1
X131.55Y-30.64
X131.55Y-33.18
X131.55Y-35.72
X139.17Y-20.48
X139.17Y-23.02
X139.17Y-25.56
X139.17Y-28.1
X139.17Y-30.64
X139.17Y-33.18
X139.17Y-35.72
T4
X128.71Y-131.75
X129.21Y-108.25
X129.7Y-87.25
X131.25Y-131.75
X131.75Y-108.25
X132.24Y-87.25
X134.21Y-131.75
X134.71Y-108.25
X135.21Y-87.25
X136.75Y-131.75
X137.25Y-108.25
X137.75Y-87.25
X146.67Y-131.75
X147.17Y-107.75
X147.23Y-66.53
X147.23Y-72.0
X147.23Y-77.47
X147.71Y-87.25
X149.21Y-131.75
X149.71Y-107.75
X149.77Y-66.53
X149.77Y-72.0
X149.77Y-77.47
X150.25Y-87.25
X152.17Y-131.75
X152.67Y-107.75
X152.94Y-87.25
X154.71Y-131.75
X155.21Y-107.75
X155.48Y-87.25
X164.96Y-131.5
X165.23Y-108.0
X166.0Y-87.5
X167.5Y-131.5
X167.77Y-108.0
X168.54Y-87.5
X170.46Y-131.5
X170.73Y-108.0
X171.23Y-87.5
X173.0Y-131.5
X173.27Y-108.0
X173.77Y-87.5
T5
X129.69Y-138.5
X129.69Y-143.0
X130.0Y-114.5
X130.0Y-119.0
X130.5Y-93.75
X130.5Y-98.25
X136.19Y-138.5
X136.19Y-143.0
X136.5Y-114.5
X136.5Y-119.0
X137.0Y-93.75
X137.0Y-98.25
X147.46Y-114.5
X147.46Y-119.0
X147.65Y-138.5
X147.65Y-143.0
X148.46Y-93.5
X148.46Y-98.0
X153.96Y-114.5
X153.96Y-119.0
X154.15Y-138.5
X154.15Y-143.0
X154.96Y-93.5
X154.96Y-98.0
X166.0Y-114.5
X166.0Y-119.0
X166.44Y-138.75
X166.44Y-143.25
X166.5Y-94.0
X166.5Y-98.5
X172.5Y-114.5
X172.5Y-119.0
X172.94Y-138.75
X172.94Y-143.25
X173.0Y-94.0
X173.0Y-98.5
T6
X151.0Y-35.5
X151.0Y-40.58
M30
