%TF.GenerationSoftware,KiCad,Pcbnew,9.0.0*%
%TF.CreationDate,2025-04-01T09:44:25+05:30*%
%TF.ProjectId,DSD_Project,4453445f-5072-46f6-9a65-63742e6b6963,rev?*%
%TF.SameCoordinates,Original*%
%TF.FileFunction,Paste,Top*%
%TF.FilePolarity,Positive*%
%FSLAX46Y46*%
G04 Gerber Fmt 4.6, Leading zero omitted, Abs format (unit mm)*
G04 Created by KiCad (PCBNEW 9.0.0) date 2025-04-01 09:44:25*
%MOMM*%
%LPD*%
G01*
G04 APERTURE LIST*
G04 Aperture macros list*
%AMRoundRect*
0 Rectangle with rounded corners*
0 $1 Rounding radius*
0 $2 $3 $4 $5 $6 $7 $8 $9 X,Y pos of 4 corners*
0 Add a 4 corners polygon primitive as box body*
4,1,4,$2,$3,$4,$5,$6,$7,$8,$9,$2,$3,0*
0 Add four circle primitives for the rounded corners*
1,1,$1+$1,$2,$3*
1,1,$1+$1,$4,$5*
1,1,$1+$1,$6,$7*
1,1,$1+$1,$8,$9*
0 Add four rect primitives between the rounded corners*
20,1,$1+$1,$2,$3,$4,$5,0*
20,1,$1+$1,$4,$5,$6,$7,0*
20,1,$1+$1,$6,$7,$8,$9,0*
20,1,$1+$1,$8,$9,$2,$3,0*%
G04 Aperture macros list end*
%ADD10RoundRect,0.150000X-0.825000X-0.150000X0.825000X-0.150000X0.825000X0.150000X-0.825000X0.150000X0*%
%ADD11R,1.000000X0.800000*%
%ADD12R,0.700000X1.500000*%
G04 APERTURE END LIST*
D10*
%TO.C,U40*%
X74105000Y-132985000D03*
X74105000Y-134255000D03*
X74105000Y-135525000D03*
X74105000Y-136795000D03*
X79055000Y-136795000D03*
X79055000Y-135525000D03*
X79055000Y-134255000D03*
X79055000Y-132985000D03*
%TD*%
D11*
%TO.C,D_Preset1*%
X155850000Y-58440000D03*
X155850000Y-60650000D03*
X163150000Y-58440000D03*
X163150000Y-60650000D03*
D12*
X157250000Y-57790000D03*
X160250000Y-57790000D03*
X161750000Y-57790000D03*
%TD*%
D11*
%TO.C,D_Clear1*%
X155850000Y-49890000D03*
X155850000Y-52100000D03*
X163150000Y-49890000D03*
X163150000Y-52100000D03*
D12*
X157250000Y-49240000D03*
X160250000Y-49240000D03*
X161750000Y-49240000D03*
%TD*%
D11*
%TO.C,T_Preset1*%
X155850000Y-75540000D03*
X155850000Y-77750000D03*
X163150000Y-75540000D03*
X163150000Y-77750000D03*
D12*
X157250000Y-74890000D03*
X160250000Y-74890000D03*
X161750000Y-74890000D03*
%TD*%
D11*
%TO.C,T_Clear1*%
X155850000Y-66990000D03*
X155850000Y-69200000D03*
X163150000Y-66990000D03*
X163150000Y-69200000D03*
D12*
X157250000Y-66340000D03*
X160250000Y-66340000D03*
X161750000Y-66340000D03*
%TD*%
D11*
%TO.C,buckEn1*%
X142850000Y-49050000D03*
X142850000Y-51260000D03*
X150150000Y-49050000D03*
X150150000Y-51260000D03*
D12*
X144250000Y-48400000D03*
X147250000Y-48400000D03*
X148750000Y-48400000D03*
%TD*%
M02*
